<svg xmlns="http://www.w3.org/2000/svg" width="32" height="32" viewBox="0 0 32 32">
  <rect width="32" height="32" rx="6" fill="#0a0a0b"/>
  <g transform="translate(6,3) scale(0.025)" fill="white">
    <path d="M400,50 C400,50 420,120 380,200 C360,240 390,280 410,300 C430,320 450,380 430,450 C420,490 400,520 370,540 C340,560 310,570 280,560 C250,550 230,520 220,490 C210,460 200,420 210,380 C220,340 250,310 260,280 C270,250 250,220 230,200 C210,180 190,140 200,100 C210,60 240,30 280,20 C320,10 360,20 380,40 C390,45 395,48 400,50 Z"/>
    <path d="M300,200 C310,180 340,180 350,200 C360,220 350,250 330,260 C310,270 290,250 290,230 C290,215 295,205 300,200 Z"/>
    <path d="M250,350 C250,350 260,320 290,310 C320,300 350,310 360,340 C370,370 350,400 320,410 C290,420 260,400 250,370 C245,360 248,355 250,350 Z"/>
  </g>
</svg>